<svg xmlns="http://www.w3.org/2000/svg" viewBox="0 0 24 24" role="img" aria-label="GitHub Actions">
  <path fill="#2088FF" d="M10.984 13.836a.5.5 0 0 1-.353-.146l-.851-.85a.5.5 0 1 1 .707-.708l.497.498 1.298-1.298a.5.5 0 1 1 .707.707l-1.651 1.651a.5.5 0 0 1-.354.146zm-.998 2.946a4.825 4.825 0 1 1 0-9.65 4.825 4.825 0 0 1 0 9.65zm0-8.114a3.288 3.288 0 1 0 0 6.576 3.288 3.288 0 0 0 0-6.576z"/>
  <path fill="#2088FF" d="M21.665 11.951a1.55 1.55 0 0 0-.272-.029h-2.529a1.55 1.55 0 0 0 0 3.1h.16l-.96 2.078a1.55 1.55 0 0 0 .763 2.054l.045.02a1.55 1.55 0 0 0 2.038-.79l1.788-3.87a1.55 1.55 0 0 0 .147-.66v-.336a1.55 1.55 0 0 0-1.18-1.567z"/>
  <path fill="#2088FF" d="M2.319 5.052a1.55 1.55 0 0 1 .272-.029h2.529a1.55 1.55 0 0 1 0 3.1h-.16l.96 2.078a1.55 1.55 0 0 1-.763 2.054l-.045.02a1.55 1.55 0 0 1-2.038-.79L1.286 7.615a1.55 1.55 0 0 1-.147-.66v-.336a1.55 1.55 0 0 1 1.18-1.567z"/>
</svg>
